<mxfile host="app.diagrams.net" agent="Mozilla/5.0 (Windows NT 10.0; Win64; x64) AppleWebKit/537.36 (KHTML, like Gecko) Chrome/135.0.0.0 Safari/537.36" version="26.0.16">
  <diagram name="PÃ¡gina-1" id="fWsjNjUw_VZmyelZminC">
    <mxGraphModel dx="4101" dy="1217" grid="1" gridSize="10" guides="1" tooltips="1" connect="1" arrows="1" fold="1" page="1" pageScale="1" pageWidth="827" pageHeight="1169" math="0" shadow="0">
      <root>
        <mxCell id="0" />
        <mxCell id="1" parent="0" />
        <mxCell id="OV2TNJfmkwUL_sUpIshk-5" value="" style="edgeStyle=orthogonalEdgeStyle;rounded=0;orthogonalLoop=1;jettySize=auto;html=1;" edge="1" parent="1" source="OV2TNJfmkwUL_sUpIshk-1" target="OV2TNJfmkwUL_sUpIshk-4">
          <mxGeometry relative="1" as="geometry" />
        </mxCell>
        <mxCell id="OV2TNJfmkwUL_sUpIshk-1" value="Document" style="rounded=0;whiteSpace=wrap;html=1;" vertex="1" parent="1">
          <mxGeometry x="320" y="120" width="120" height="60" as="geometry" />
        </mxCell>
        <mxCell id="OV2TNJfmkwUL_sUpIshk-9" style="edgeStyle=orthogonalEdgeStyle;rounded=0;orthogonalLoop=1;jettySize=auto;html=1;exitX=0;exitY=1;exitDx=0;exitDy=0;entryX=0.5;entryY=0;entryDx=0;entryDy=0;" edge="1" parent="1" source="OV2TNJfmkwUL_sUpIshk-4" target="OV2TNJfmkwUL_sUpIshk-8">
          <mxGeometry relative="1" as="geometry">
            <Array as="points">
              <mxPoint x="320" y="290" />
              <mxPoint x="-159" y="290" />
            </Array>
          </mxGeometry>
        </mxCell>
        <mxCell id="OV2TNJfmkwUL_sUpIshk-11" style="edgeStyle=orthogonalEdgeStyle;rounded=0;orthogonalLoop=1;jettySize=auto;html=1;exitX=1;exitY=0.5;exitDx=0;exitDy=0;" edge="1" parent="1" source="OV2TNJfmkwUL_sUpIshk-4" target="OV2TNJfmkwUL_sUpIshk-10">
          <mxGeometry relative="1" as="geometry" />
        </mxCell>
        <mxCell id="OV2TNJfmkwUL_sUpIshk-4" value="Element&lt;div&gt;Root&lt;/div&gt;&lt;div&gt;&amp;lt;html&amp;gt;&lt;/div&gt;" style="rounded=0;whiteSpace=wrap;html=1;" vertex="1" parent="1">
          <mxGeometry x="320" y="260" width="120" height="60" as="geometry" />
        </mxCell>
        <mxCell id="OV2TNJfmkwUL_sUpIshk-16" style="edgeStyle=orthogonalEdgeStyle;rounded=0;orthogonalLoop=1;jettySize=auto;html=1;exitX=0;exitY=0.5;exitDx=0;exitDy=0;" edge="1" parent="1" source="OV2TNJfmkwUL_sUpIshk-8" target="OV2TNJfmkwUL_sUpIshk-12">
          <mxGeometry relative="1" as="geometry" />
        </mxCell>
        <mxCell id="OV2TNJfmkwUL_sUpIshk-17" style="edgeStyle=orthogonalEdgeStyle;rounded=0;orthogonalLoop=1;jettySize=auto;html=1;exitX=0.25;exitY=1;exitDx=0;exitDy=0;" edge="1" parent="1" source="OV2TNJfmkwUL_sUpIshk-8" target="OV2TNJfmkwUL_sUpIshk-13">
          <mxGeometry relative="1" as="geometry" />
        </mxCell>
        <mxCell id="OV2TNJfmkwUL_sUpIshk-18" style="edgeStyle=orthogonalEdgeStyle;rounded=0;orthogonalLoop=1;jettySize=auto;html=1;exitX=0.75;exitY=1;exitDx=0;exitDy=0;entryX=0.5;entryY=0;entryDx=0;entryDy=0;" edge="1" parent="1" source="OV2TNJfmkwUL_sUpIshk-8" target="OV2TNJfmkwUL_sUpIshk-14">
          <mxGeometry relative="1" as="geometry" />
        </mxCell>
        <mxCell id="OV2TNJfmkwUL_sUpIshk-19" style="edgeStyle=orthogonalEdgeStyle;rounded=0;orthogonalLoop=1;jettySize=auto;html=1;exitX=1;exitY=0.5;exitDx=0;exitDy=0;" edge="1" parent="1" source="OV2TNJfmkwUL_sUpIshk-8" target="OV2TNJfmkwUL_sUpIshk-15">
          <mxGeometry relative="1" as="geometry" />
        </mxCell>
        <mxCell id="OV2TNJfmkwUL_sUpIshk-8" value="Element&lt;div&gt;&amp;lt;head&amp;gt;&lt;/div&gt;" style="rounded=0;whiteSpace=wrap;html=1;" vertex="1" parent="1">
          <mxGeometry x="-219" y="360" width="120" height="60" as="geometry" />
        </mxCell>
        <mxCell id="OV2TNJfmkwUL_sUpIshk-21" style="edgeStyle=orthogonalEdgeStyle;rounded=0;orthogonalLoop=1;jettySize=auto;html=1;exitX=0;exitY=0.5;exitDx=0;exitDy=0;" edge="1" parent="1" source="OV2TNJfmkwUL_sUpIshk-10" target="OV2TNJfmkwUL_sUpIshk-20">
          <mxGeometry relative="1" as="geometry" />
        </mxCell>
        <mxCell id="OV2TNJfmkwUL_sUpIshk-25" style="edgeStyle=orthogonalEdgeStyle;rounded=0;orthogonalLoop=1;jettySize=auto;html=1;exitX=1;exitY=0.5;exitDx=0;exitDy=0;entryX=0.5;entryY=0;entryDx=0;entryDy=0;" edge="1" parent="1" target="OV2TNJfmkwUL_sUpIshk-22">
          <mxGeometry relative="1" as="geometry">
            <mxPoint x="912" y="390" as="sourcePoint" />
            <mxPoint x="942" y="480" as="targetPoint" />
          </mxGeometry>
        </mxCell>
        <mxCell id="OV2TNJfmkwUL_sUpIshk-10" value="Element&lt;div&gt;&amp;lt;body&amp;gt;&lt;/div&gt;" style="rounded=0;whiteSpace=wrap;html=1;" vertex="1" parent="1">
          <mxGeometry x="791" y="360" width="120" height="60" as="geometry" />
        </mxCell>
        <mxCell id="OV2TNJfmkwUL_sUpIshk-39" style="edgeStyle=orthogonalEdgeStyle;rounded=0;orthogonalLoop=1;jettySize=auto;html=1;exitX=0.5;exitY=1;exitDx=0;exitDy=0;" edge="1" parent="1" source="OV2TNJfmkwUL_sUpIshk-12" target="OV2TNJfmkwUL_sUpIshk-38">
          <mxGeometry relative="1" as="geometry" />
        </mxCell>
        <mxCell id="OV2TNJfmkwUL_sUpIshk-12" value="Element&lt;div&gt;&amp;lt;meta&amp;gt;&lt;/div&gt;" style="rounded=0;whiteSpace=wrap;html=1;" vertex="1" parent="1">
          <mxGeometry x="-460" y="480" width="120" height="60" as="geometry" />
        </mxCell>
        <mxCell id="OV2TNJfmkwUL_sUpIshk-42" style="edgeStyle=orthogonalEdgeStyle;rounded=0;orthogonalLoop=1;jettySize=auto;html=1;exitX=0.25;exitY=1;exitDx=0;exitDy=0;" edge="1" parent="1" source="OV2TNJfmkwUL_sUpIshk-13" target="OV2TNJfmkwUL_sUpIshk-40">
          <mxGeometry relative="1" as="geometry">
            <Array as="points">
              <mxPoint x="-270" y="690" />
              <mxPoint x="-360" y="690" />
            </Array>
          </mxGeometry>
        </mxCell>
        <mxCell id="OV2TNJfmkwUL_sUpIshk-43" style="edgeStyle=orthogonalEdgeStyle;rounded=0;orthogonalLoop=1;jettySize=auto;html=1;exitX=0.75;exitY=1;exitDx=0;exitDy=0;" edge="1" parent="1" source="OV2TNJfmkwUL_sUpIshk-13" target="OV2TNJfmkwUL_sUpIshk-41">
          <mxGeometry relative="1" as="geometry">
            <Array as="points">
              <mxPoint x="-210" y="690" />
              <mxPoint x="-150" y="690" />
            </Array>
          </mxGeometry>
        </mxCell>
        <mxCell id="OV2TNJfmkwUL_sUpIshk-13" value="Element&amp;nbsp;&lt;div&gt;&amp;lt;meta&amp;gt;&lt;/div&gt;" style="rounded=0;whiteSpace=wrap;html=1;" vertex="1" parent="1">
          <mxGeometry x="-300" y="480" width="120" height="60" as="geometry" />
        </mxCell>
        <mxCell id="OV2TNJfmkwUL_sUpIshk-37" style="edgeStyle=orthogonalEdgeStyle;rounded=0;orthogonalLoop=1;jettySize=auto;html=1;exitX=0.5;exitY=1;exitDx=0;exitDy=0;entryX=0.5;entryY=0;entryDx=0;entryDy=0;" edge="1" parent="1" source="OV2TNJfmkwUL_sUpIshk-14" target="OV2TNJfmkwUL_sUpIshk-35">
          <mxGeometry relative="1" as="geometry" />
        </mxCell>
        <mxCell id="OV2TNJfmkwUL_sUpIshk-14" value="Element&lt;div&gt;&amp;lt;title&amp;gt;&lt;/div&gt;" style="rounded=0;whiteSpace=wrap;html=1;" vertex="1" parent="1">
          <mxGeometry x="-140" y="480" width="120" height="60" as="geometry" />
        </mxCell>
        <mxCell id="OV2TNJfmkwUL_sUpIshk-45" style="edgeStyle=orthogonalEdgeStyle;rounded=0;orthogonalLoop=1;jettySize=auto;html=1;exitX=0;exitY=0.5;exitDx=0;exitDy=0;" edge="1" parent="1" source="OV2TNJfmkwUL_sUpIshk-15" target="OV2TNJfmkwUL_sUpIshk-44">
          <mxGeometry relative="1" as="geometry" />
        </mxCell>
        <mxCell id="OV2TNJfmkwUL_sUpIshk-47" style="edgeStyle=orthogonalEdgeStyle;rounded=0;orthogonalLoop=1;jettySize=auto;html=1;exitX=0.5;exitY=1;exitDx=0;exitDy=0;" edge="1" parent="1" source="OV2TNJfmkwUL_sUpIshk-15" target="OV2TNJfmkwUL_sUpIshk-46">
          <mxGeometry relative="1" as="geometry" />
        </mxCell>
        <mxCell id="OV2TNJfmkwUL_sUpIshk-49" style="edgeStyle=orthogonalEdgeStyle;rounded=0;orthogonalLoop=1;jettySize=auto;html=1;exitX=1;exitY=0.5;exitDx=0;exitDy=0;entryX=0.5;entryY=0;entryDx=0;entryDy=0;" edge="1" parent="1" source="OV2TNJfmkwUL_sUpIshk-15" target="OV2TNJfmkwUL_sUpIshk-48">
          <mxGeometry relative="1" as="geometry">
            <Array as="points">
              <mxPoint x="350" y="510" />
            </Array>
          </mxGeometry>
        </mxCell>
        <mxCell id="OV2TNJfmkwUL_sUpIshk-15" value="Element&lt;div&gt;&amp;lt;link&amp;gt;&lt;/div&gt;" style="rounded=0;whiteSpace=wrap;html=1;" vertex="1" parent="1">
          <mxGeometry x="160" y="480" width="120" height="60" as="geometry" />
        </mxCell>
        <mxCell id="OV2TNJfmkwUL_sUpIshk-54" style="edgeStyle=orthogonalEdgeStyle;rounded=0;orthogonalLoop=1;jettySize=auto;html=1;exitX=0;exitY=0.5;exitDx=0;exitDy=0;" edge="1" parent="1" source="OV2TNJfmkwUL_sUpIshk-20" target="OV2TNJfmkwUL_sUpIshk-51">
          <mxGeometry relative="1" as="geometry" />
        </mxCell>
        <mxCell id="OV2TNJfmkwUL_sUpIshk-55" style="edgeStyle=orthogonalEdgeStyle;rounded=0;orthogonalLoop=1;jettySize=auto;html=1;exitX=0.5;exitY=1;exitDx=0;exitDy=0;entryX=0.5;entryY=0;entryDx=0;entryDy=0;" edge="1" parent="1" source="OV2TNJfmkwUL_sUpIshk-20" target="OV2TNJfmkwUL_sUpIshk-52">
          <mxGeometry relative="1" as="geometry" />
        </mxCell>
        <mxCell id="OV2TNJfmkwUL_sUpIshk-56" style="edgeStyle=orthogonalEdgeStyle;rounded=0;orthogonalLoop=1;jettySize=auto;html=1;exitX=1;exitY=0.5;exitDx=0;exitDy=0;" edge="1" parent="1" source="OV2TNJfmkwUL_sUpIshk-20" target="OV2TNJfmkwUL_sUpIshk-53">
          <mxGeometry relative="1" as="geometry" />
        </mxCell>
        <mxCell id="OV2TNJfmkwUL_sUpIshk-59" style="edgeStyle=orthogonalEdgeStyle;rounded=0;orthogonalLoop=1;jettySize=auto;html=1;exitX=0.25;exitY=1;exitDx=0;exitDy=0;" edge="1" parent="1" source="OV2TNJfmkwUL_sUpIshk-20" target="OV2TNJfmkwUL_sUpIshk-57">
          <mxGeometry relative="1" as="geometry">
            <Array as="points">
              <mxPoint x="610" y="580" />
              <mxPoint x="560" y="580" />
            </Array>
          </mxGeometry>
        </mxCell>
        <mxCell id="OV2TNJfmkwUL_sUpIshk-60" style="edgeStyle=orthogonalEdgeStyle;rounded=0;orthogonalLoop=1;jettySize=auto;html=1;exitX=0.75;exitY=1;exitDx=0;exitDy=0;" edge="1" parent="1" source="OV2TNJfmkwUL_sUpIshk-20" target="OV2TNJfmkwUL_sUpIshk-58">
          <mxGeometry relative="1" as="geometry">
            <Array as="points">
              <mxPoint x="670" y="580" />
              <mxPoint x="720" y="580" />
            </Array>
          </mxGeometry>
        </mxCell>
        <mxCell id="OV2TNJfmkwUL_sUpIshk-20" value="Element&lt;div&gt;&amp;lt;img&amp;gt;&lt;/div&gt;" style="rounded=0;whiteSpace=wrap;html=1;" vertex="1" parent="1">
          <mxGeometry x="580" y="480" width="120" height="60" as="geometry" />
        </mxCell>
        <mxCell id="OV2TNJfmkwUL_sUpIshk-27" style="edgeStyle=orthogonalEdgeStyle;rounded=0;orthogonalLoop=1;jettySize=auto;html=1;exitX=0;exitY=0.5;exitDx=0;exitDy=0;entryX=0.5;entryY=0;entryDx=0;entryDy=0;" edge="1" parent="1" source="OV2TNJfmkwUL_sUpIshk-22" target="OV2TNJfmkwUL_sUpIshk-26">
          <mxGeometry relative="1" as="geometry">
            <Array as="points">
              <mxPoint x="980" y="510" />
            </Array>
          </mxGeometry>
        </mxCell>
        <mxCell id="OV2TNJfmkwUL_sUpIshk-29" style="edgeStyle=orthogonalEdgeStyle;rounded=0;orthogonalLoop=1;jettySize=auto;html=1;exitX=0.25;exitY=1;exitDx=0;exitDy=0;entryX=0.5;entryY=0;entryDx=0;entryDy=0;" edge="1" parent="1" source="OV2TNJfmkwUL_sUpIshk-22" target="OV2TNJfmkwUL_sUpIshk-28">
          <mxGeometry relative="1" as="geometry" />
        </mxCell>
        <mxCell id="OV2TNJfmkwUL_sUpIshk-31" style="edgeStyle=orthogonalEdgeStyle;rounded=0;orthogonalLoop=1;jettySize=auto;html=1;exitX=0.75;exitY=1;exitDx=0;exitDy=0;entryX=0.5;entryY=0;entryDx=0;entryDy=0;" edge="1" parent="1" source="OV2TNJfmkwUL_sUpIshk-22" target="OV2TNJfmkwUL_sUpIshk-30">
          <mxGeometry relative="1" as="geometry" />
        </mxCell>
        <mxCell id="OV2TNJfmkwUL_sUpIshk-33" style="edgeStyle=orthogonalEdgeStyle;rounded=0;orthogonalLoop=1;jettySize=auto;html=1;exitX=1;exitY=0.5;exitDx=0;exitDy=0;entryX=0.5;entryY=0;entryDx=0;entryDy=0;" edge="1" parent="1" source="OV2TNJfmkwUL_sUpIshk-22" target="OV2TNJfmkwUL_sUpIshk-32">
          <mxGeometry relative="1" as="geometry" />
        </mxCell>
        <mxCell id="OV2TNJfmkwUL_sUpIshk-22" value="Element&lt;div&gt;&amp;lt;div&amp;gt;&lt;/div&gt;" style="rounded=0;whiteSpace=wrap;html=1;" vertex="1" parent="1">
          <mxGeometry x="1390" y="480" width="120" height="60" as="geometry" />
        </mxCell>
        <mxCell id="OV2TNJfmkwUL_sUpIshk-84" style="edgeStyle=orthogonalEdgeStyle;rounded=0;orthogonalLoop=1;jettySize=auto;html=1;exitX=0;exitY=0.5;exitDx=0;exitDy=0;entryX=0.5;entryY=0;entryDx=0;entryDy=0;" edge="1" parent="1" source="OV2TNJfmkwUL_sUpIshk-26" target="OV2TNJfmkwUL_sUpIshk-83">
          <mxGeometry relative="1" as="geometry" />
        </mxCell>
        <mxCell id="OV2TNJfmkwUL_sUpIshk-87" style="edgeStyle=orthogonalEdgeStyle;rounded=0;orthogonalLoop=1;jettySize=auto;html=1;exitX=1;exitY=0.5;exitDx=0;exitDy=0;entryX=0.5;entryY=0;entryDx=0;entryDy=0;" edge="1" parent="1" source="OV2TNJfmkwUL_sUpIshk-26" target="OV2TNJfmkwUL_sUpIshk-85">
          <mxGeometry relative="1" as="geometry" />
        </mxCell>
        <mxCell id="OV2TNJfmkwUL_sUpIshk-26" value="Element&lt;div&gt;&amp;lt;h2&amp;gt;&lt;/div&gt;" style="rounded=0;whiteSpace=wrap;html=1;" vertex="1" parent="1">
          <mxGeometry x="920" y="600" width="120" height="60" as="geometry" />
        </mxCell>
        <mxCell id="OV2TNJfmkwUL_sUpIshk-93" style="edgeStyle=orthogonalEdgeStyle;rounded=0;orthogonalLoop=1;jettySize=auto;html=1;exitX=0;exitY=0.5;exitDx=0;exitDy=0;entryX=0.5;entryY=0;entryDx=0;entryDy=0;" edge="1" parent="1" source="OV2TNJfmkwUL_sUpIshk-28" target="OV2TNJfmkwUL_sUpIshk-91">
          <mxGeometry relative="1" as="geometry" />
        </mxCell>
        <mxCell id="OV2TNJfmkwUL_sUpIshk-95" style="edgeStyle=orthogonalEdgeStyle;rounded=0;orthogonalLoop=1;jettySize=auto;html=1;exitX=1;exitY=0.5;exitDx=0;exitDy=0;entryX=0.5;entryY=0;entryDx=0;entryDy=0;" edge="1" parent="1" source="OV2TNJfmkwUL_sUpIshk-28" target="OV2TNJfmkwUL_sUpIshk-94">
          <mxGeometry relative="1" as="geometry" />
        </mxCell>
        <mxCell id="OV2TNJfmkwUL_sUpIshk-28" value="Element&lt;div&gt;&amp;lt;p&amp;gt;&lt;/div&gt;" style="rounded=0;whiteSpace=wrap;html=1;" vertex="1" parent="1">
          <mxGeometry x="1230" y="590" width="120" height="60" as="geometry" />
        </mxCell>
        <mxCell id="OV2TNJfmkwUL_sUpIshk-138" style="edgeStyle=orthogonalEdgeStyle;rounded=0;orthogonalLoop=1;jettySize=auto;html=1;exitX=0;exitY=1;exitDx=0;exitDy=0;entryX=0.5;entryY=0;entryDx=0;entryDy=0;" edge="1" parent="1" source="OV2TNJfmkwUL_sUpIshk-30" target="OV2TNJfmkwUL_sUpIshk-76">
          <mxGeometry relative="1" as="geometry">
            <Array as="points">
              <mxPoint x="1550" y="790" />
              <mxPoint x="1260" y="790" />
            </Array>
          </mxGeometry>
        </mxCell>
        <mxCell id="OV2TNJfmkwUL_sUpIshk-139" style="edgeStyle=orthogonalEdgeStyle;rounded=0;orthogonalLoop=1;jettySize=auto;html=1;exitX=0.25;exitY=1;exitDx=0;exitDy=0;" edge="1" parent="1" source="OV2TNJfmkwUL_sUpIshk-30" target="OV2TNJfmkwUL_sUpIshk-104">
          <mxGeometry relative="1" as="geometry">
            <Array as="points">
              <mxPoint x="1580" y="810" />
              <mxPoint x="1520" y="810" />
            </Array>
          </mxGeometry>
        </mxCell>
        <mxCell id="OV2TNJfmkwUL_sUpIshk-140" style="edgeStyle=orthogonalEdgeStyle;rounded=0;orthogonalLoop=1;jettySize=auto;html=1;exitX=0.5;exitY=1;exitDx=0;exitDy=0;entryX=0.5;entryY=0;entryDx=0;entryDy=0;" edge="1" parent="1" source="OV2TNJfmkwUL_sUpIshk-30" target="OV2TNJfmkwUL_sUpIshk-113">
          <mxGeometry relative="1" as="geometry">
            <Array as="points">
              <mxPoint x="1610" y="810" />
              <mxPoint x="1784" y="810" />
            </Array>
          </mxGeometry>
        </mxCell>
        <mxCell id="OV2TNJfmkwUL_sUpIshk-141" style="edgeStyle=orthogonalEdgeStyle;rounded=0;orthogonalLoop=1;jettySize=auto;html=1;exitX=0.75;exitY=1;exitDx=0;exitDy=0;entryX=0.5;entryY=0;entryDx=0;entryDy=0;" edge="1" parent="1" source="OV2TNJfmkwUL_sUpIshk-30" target="OV2TNJfmkwUL_sUpIshk-122">
          <mxGeometry relative="1" as="geometry">
            <Array as="points">
              <mxPoint x="1640" y="790" />
              <mxPoint x="2050" y="790" />
            </Array>
          </mxGeometry>
        </mxCell>
        <mxCell id="OV2TNJfmkwUL_sUpIshk-142" style="edgeStyle=orthogonalEdgeStyle;rounded=0;orthogonalLoop=1;jettySize=auto;html=1;exitX=1;exitY=1;exitDx=0;exitDy=0;" edge="1" parent="1" source="OV2TNJfmkwUL_sUpIshk-30" target="OV2TNJfmkwUL_sUpIshk-131">
          <mxGeometry relative="1" as="geometry">
            <Array as="points">
              <mxPoint x="1670" y="780" />
              <mxPoint x="2310" y="780" />
            </Array>
          </mxGeometry>
        </mxCell>
        <mxCell id="OV2TNJfmkwUL_sUpIshk-30" value="Element&lt;div&gt;&amp;lt;table&amp;gt;&lt;/div&gt;" style="rounded=0;whiteSpace=wrap;html=1;" vertex="1" parent="1">
          <mxGeometry x="1550" y="590" width="120" height="60" as="geometry" />
        </mxCell>
        <mxCell id="OV2TNJfmkwUL_sUpIshk-147" style="edgeStyle=orthogonalEdgeStyle;rounded=0;orthogonalLoop=1;jettySize=auto;html=1;exitX=0;exitY=0.5;exitDx=0;exitDy=0;entryX=0.5;entryY=0;entryDx=0;entryDy=0;" edge="1" parent="1" source="OV2TNJfmkwUL_sUpIshk-32" target="OV2TNJfmkwUL_sUpIshk-146">
          <mxGeometry relative="1" as="geometry" />
        </mxCell>
        <mxCell id="OV2TNJfmkwUL_sUpIshk-149" style="edgeStyle=orthogonalEdgeStyle;rounded=0;orthogonalLoop=1;jettySize=auto;html=1;exitX=1;exitY=0.5;exitDx=0;exitDy=0;entryX=0.5;entryY=0;entryDx=0;entryDy=0;" edge="1" parent="1" source="OV2TNJfmkwUL_sUpIshk-32" target="OV2TNJfmkwUL_sUpIshk-148">
          <mxGeometry relative="1" as="geometry" />
        </mxCell>
        <mxCell id="OV2TNJfmkwUL_sUpIshk-32" value="Element&lt;div&gt;&amp;lt;p&amp;gt;&lt;/div&gt;" style="rounded=0;whiteSpace=wrap;html=1;" vertex="1" parent="1">
          <mxGeometry x="1830" y="590" width="120" height="60" as="geometry" />
        </mxCell>
        <mxCell id="OV2TNJfmkwUL_sUpIshk-35" value="Texto&lt;div&gt;Jhonatan Homsany&lt;/div&gt;" style="rounded=0;whiteSpace=wrap;html=1;fillColor=light-dark(#B3B3B3,var(--ge-dark-color, #121212));" vertex="1" parent="1">
          <mxGeometry x="-140" y="600" width="120" height="60" as="geometry" />
        </mxCell>
        <mxCell id="OV2TNJfmkwUL_sUpIshk-38" value="Attr&lt;div&gt;charset=&quot;UTF-8&quot;&lt;/div&gt;" style="rounded=0;whiteSpace=wrap;html=1;fillColor=light-dark(#B3B3B3,var(--ge-dark-color, #121212));" vertex="1" parent="1">
          <mxGeometry x="-460" y="600" width="120" height="60" as="geometry" />
        </mxCell>
        <mxCell id="OV2TNJfmkwUL_sUpIshk-40" value="Attr&lt;div&gt;name = &quot;viewport&quot;&lt;/div&gt;" style="rounded=0;whiteSpace=wrap;html=1;fillColor=light-dark(#B3B3B3,var(--ge-dark-color, #121212));" vertex="1" parent="1">
          <mxGeometry x="-420" y="720" width="120" height="60" as="geometry" />
        </mxCell>
        <mxCell id="OV2TNJfmkwUL_sUpIshk-41" value="Attr&lt;div&gt;content=&quot;width=device-width&quot;, initial-scale=1.0&quot;&lt;/div&gt;" style="rounded=0;whiteSpace=wrap;html=1;fillColor=light-dark(#B3B3B3,var(--ge-dark-color, #121212));" vertex="1" parent="1">
          <mxGeometry x="-210" y="720" width="170" height="60" as="geometry" />
        </mxCell>
        <mxCell id="OV2TNJfmkwUL_sUpIshk-44" value="Attr&lt;div&gt;rel=&quot;icon&quot;&lt;/div&gt;" style="rounded=0;whiteSpace=wrap;html=1;fillColor=light-dark(#B3B3B3,var(--ge-dark-color, #121212));" vertex="1" parent="1">
          <mxGeometry x="30" y="600" width="120" height="60" as="geometry" />
        </mxCell>
        <mxCell id="OV2TNJfmkwUL_sUpIshk-46" value="Attr&lt;div&gt;type=&quot;image/x-icon&quot;&lt;/div&gt;" style="rounded=0;whiteSpace=wrap;html=1;fillColor=light-dark(#B3B3B3,var(--ge-dark-color, #121212));" vertex="1" parent="1">
          <mxGeometry x="160" y="600" width="120" height="60" as="geometry" />
        </mxCell>
        <mxCell id="OV2TNJfmkwUL_sUpIshk-48" value="Attr&lt;div&gt;href=&quot;favicon.ico&quot;&lt;/div&gt;" style="rounded=0;whiteSpace=wrap;html=1;fillColor=light-dark(#B3B3B3,var(--ge-dark-color, #121212));" vertex="1" parent="1">
          <mxGeometry x="290" y="600" width="120" height="60" as="geometry" />
        </mxCell>
        <mxCell id="OV2TNJfmkwUL_sUpIshk-51" value="Attr&lt;div&gt;id=&quot;ImagenPerfil&quot;&lt;/div&gt;" style="rounded=0;whiteSpace=wrap;html=1;fillColor=light-dark(#B3B3B3,var(--ge-dark-color, #121212));" vertex="1" parent="1">
          <mxGeometry x="430" y="600" width="120" height="60" as="geometry" />
        </mxCell>
        <mxCell id="OV2TNJfmkwUL_sUpIshk-52" value="Attr&lt;div&gt;src=&quot;30182893.jpeg&quot;&lt;/div&gt;" style="rounded=0;whiteSpace=wrap;html=1;fillColor=light-dark(#B3B3B3,var(--ge-dark-color, #121212));" vertex="1" parent="1">
          <mxGeometry x="580" y="600" width="120" height="60" as="geometry" />
        </mxCell>
        <mxCell id="OV2TNJfmkwUL_sUpIshk-53" value="Attr&lt;div&gt;alt=&quot;Foto de perfil&quot;&lt;/div&gt;" style="rounded=0;whiteSpace=wrap;html=1;fillColor=light-dark(#B3B3B3,var(--ge-dark-color, #121212));" vertex="1" parent="1">
          <mxGeometry x="730" y="600" width="120" height="60" as="geometry" />
        </mxCell>
        <mxCell id="OV2TNJfmkwUL_sUpIshk-57" value="Attr&lt;div&gt;width=&quot;300&quot;&lt;/div&gt;" style="rounded=0;whiteSpace=wrap;html=1;fillColor=light-dark(#B3B3B3,var(--ge-dark-color, #121212));" vertex="1" parent="1">
          <mxGeometry x="500" y="680" width="120" height="60" as="geometry" />
        </mxCell>
        <mxCell id="OV2TNJfmkwUL_sUpIshk-58" value="Attr&lt;div&gt;height=&quot;306&lt;/div&gt;" style="rounded=0;whiteSpace=wrap;html=1;fillColor=light-dark(#B3B3B3,var(--ge-dark-color, #121212));" vertex="1" parent="1">
          <mxGeometry x="660" y="680" width="120" height="60" as="geometry" />
        </mxCell>
        <mxCell id="OV2TNJfmkwUL_sUpIshk-75" style="edgeStyle=orthogonalEdgeStyle;rounded=0;orthogonalLoop=1;jettySize=auto;html=1;exitX=0.25;exitY=1;exitDx=0;exitDy=0;" edge="1" parent="1" source="OV2TNJfmkwUL_sUpIshk-76" target="OV2TNJfmkwUL_sUpIshk-77">
          <mxGeometry relative="1" as="geometry" />
        </mxCell>
        <mxCell id="OV2TNJfmkwUL_sUpIshk-100" style="edgeStyle=orthogonalEdgeStyle;rounded=0;orthogonalLoop=1;jettySize=auto;html=1;exitX=0.75;exitY=1;exitDx=0;exitDy=0;entryX=0.5;entryY=0;entryDx=0;entryDy=0;" edge="1" parent="1" source="OV2TNJfmkwUL_sUpIshk-76" target="OV2TNJfmkwUL_sUpIshk-98">
          <mxGeometry relative="1" as="geometry" />
        </mxCell>
        <mxCell id="OV2TNJfmkwUL_sUpIshk-76" value="Element&lt;div&gt;&amp;lt;tr&amp;gt;&lt;/div&gt;" style="rounded=0;whiteSpace=wrap;html=1;" vertex="1" parent="1">
          <mxGeometry x="1200" y="828" width="120" height="60" as="geometry" />
        </mxCell>
        <mxCell id="OV2TNJfmkwUL_sUpIshk-97" style="edgeStyle=orthogonalEdgeStyle;rounded=0;orthogonalLoop=1;jettySize=auto;html=1;exitX=0.5;exitY=1;exitDx=0;exitDy=0;entryX=0.5;entryY=0;entryDx=0;entryDy=0;" edge="1" parent="1" source="OV2TNJfmkwUL_sUpIshk-77" target="OV2TNJfmkwUL_sUpIshk-96">
          <mxGeometry relative="1" as="geometry" />
        </mxCell>
        <mxCell id="OV2TNJfmkwUL_sUpIshk-77" value="Element&lt;div&gt;&amp;lt;td&amp;gt;&lt;/div&gt;" style="rounded=0;whiteSpace=wrap;html=1;" vertex="1" parent="1">
          <mxGeometry x="1130" y="938" width="120" height="60" as="geometry" />
        </mxCell>
        <mxCell id="OV2TNJfmkwUL_sUpIshk-83" value="Text&lt;div&gt;Jhonatan JesÃºs Homsany Zuzgoun&lt;/div&gt;" style="rounded=0;whiteSpace=wrap;html=1;fillColor=light-dark(#B3B3B3,var(--ge-dark-color, #121212));" vertex="1" parent="1">
          <mxGeometry x="830" y="680" width="120" height="60" as="geometry" />
        </mxCell>
        <mxCell id="OV2TNJfmkwUL_sUpIshk-85" value="Attr&lt;div&gt;id=&quot;Nombre&quot;&lt;/div&gt;" style="rounded=0;whiteSpace=wrap;html=1;fillColor=light-dark(#B3B3B3,var(--ge-dark-color, #121212));" vertex="1" parent="1">
          <mxGeometry x="1010" y="680" width="120" height="60" as="geometry" />
        </mxCell>
        <mxCell id="OV2TNJfmkwUL_sUpIshk-91" value="Attr&lt;div&gt;id=&quot;Descripcion&quot;&lt;/div&gt;" style="rounded=0;whiteSpace=wrap;html=1;fillColor=light-dark(#B3B3B3,var(--ge-dark-color, #121212));" vertex="1" parent="1">
          <mxGeometry x="1140" y="680" width="120" height="60" as="geometry" />
        </mxCell>
        <mxCell id="OV2TNJfmkwUL_sUpIshk-94" value="Text&lt;div&gt;Soy un estudiante...&lt;/div&gt;" style="rounded=0;whiteSpace=wrap;html=1;fillColor=light-dark(#B3B3B3,var(--ge-dark-color, #121212));" vertex="1" parent="1">
          <mxGeometry x="1320" y="680" width="120" height="60" as="geometry" />
        </mxCell>
        <mxCell id="OV2TNJfmkwUL_sUpIshk-96" value="Text&lt;div&gt;Mi color favorito es:&lt;/div&gt;" style="rounded=0;whiteSpace=wrap;html=1;fillColor=light-dark(#B3B3B3,var(--ge-dark-color, #121212));" vertex="1" parent="1">
          <mxGeometry x="1130" y="1040" width="120" height="60" as="geometry" />
        </mxCell>
        <mxCell id="OV2TNJfmkwUL_sUpIshk-101" style="edgeStyle=orthogonalEdgeStyle;rounded=0;orthogonalLoop=1;jettySize=auto;html=1;exitX=0.5;exitY=1;exitDx=0;exitDy=0;entryX=0.5;entryY=0;entryDx=0;entryDy=0;" edge="1" parent="1" source="OV2TNJfmkwUL_sUpIshk-98" target="OV2TNJfmkwUL_sUpIshk-99">
          <mxGeometry relative="1" as="geometry" />
        </mxCell>
        <mxCell id="OV2TNJfmkwUL_sUpIshk-98" value="Element&lt;div&gt;&amp;lt;td&amp;gt;&lt;/div&gt;" style="rounded=0;whiteSpace=wrap;html=1;" vertex="1" parent="1">
          <mxGeometry x="1260" y="938" width="120" height="60" as="geometry" />
        </mxCell>
        <mxCell id="OV2TNJfmkwUL_sUpIshk-99" value="Text&lt;div&gt;Azul&lt;/div&gt;" style="rounded=0;whiteSpace=wrap;html=1;fillColor=light-dark(#B3B3B3,var(--ge-dark-color, #121212));" vertex="1" parent="1">
          <mxGeometry x="1260" y="1040" width="120" height="60" as="geometry" />
        </mxCell>
        <mxCell id="OV2TNJfmkwUL_sUpIshk-102" style="edgeStyle=orthogonalEdgeStyle;rounded=0;orthogonalLoop=1;jettySize=auto;html=1;exitX=0.25;exitY=1;exitDx=0;exitDy=0;" edge="1" parent="1" source="OV2TNJfmkwUL_sUpIshk-104" target="OV2TNJfmkwUL_sUpIshk-106">
          <mxGeometry relative="1" as="geometry" />
        </mxCell>
        <mxCell id="OV2TNJfmkwUL_sUpIshk-103" style="edgeStyle=orthogonalEdgeStyle;rounded=0;orthogonalLoop=1;jettySize=auto;html=1;exitX=0.75;exitY=1;exitDx=0;exitDy=0;entryX=0.5;entryY=0;entryDx=0;entryDy=0;" edge="1" parent="1" source="OV2TNJfmkwUL_sUpIshk-104" target="OV2TNJfmkwUL_sUpIshk-109">
          <mxGeometry relative="1" as="geometry" />
        </mxCell>
        <mxCell id="OV2TNJfmkwUL_sUpIshk-104" value="Element&lt;div&gt;&amp;lt;tr&amp;gt;&lt;/div&gt;" style="rounded=0;whiteSpace=wrap;html=1;" vertex="1" parent="1">
          <mxGeometry x="1460" y="828" width="120" height="60" as="geometry" />
        </mxCell>
        <mxCell id="OV2TNJfmkwUL_sUpIshk-105" style="edgeStyle=orthogonalEdgeStyle;rounded=0;orthogonalLoop=1;jettySize=auto;html=1;exitX=0.5;exitY=1;exitDx=0;exitDy=0;entryX=0.5;entryY=0;entryDx=0;entryDy=0;" edge="1" parent="1" source="OV2TNJfmkwUL_sUpIshk-106" target="OV2TNJfmkwUL_sUpIshk-107">
          <mxGeometry relative="1" as="geometry" />
        </mxCell>
        <mxCell id="OV2TNJfmkwUL_sUpIshk-106" value="Element&lt;div&gt;&amp;lt;td&amp;gt;&lt;/div&gt;" style="rounded=0;whiteSpace=wrap;html=1;" vertex="1" parent="1">
          <mxGeometry x="1390" y="938" width="120" height="60" as="geometry" />
        </mxCell>
        <mxCell id="OV2TNJfmkwUL_sUpIshk-107" value="Text&lt;div&gt;Mi libro favorito es:&lt;/div&gt;" style="rounded=0;whiteSpace=wrap;html=1;fillColor=light-dark(#B3B3B3,var(--ge-dark-color, #121212));" vertex="1" parent="1">
          <mxGeometry x="1390" y="1040" width="120" height="60" as="geometry" />
        </mxCell>
        <mxCell id="OV2TNJfmkwUL_sUpIshk-108" style="edgeStyle=orthogonalEdgeStyle;rounded=0;orthogonalLoop=1;jettySize=auto;html=1;exitX=0.5;exitY=1;exitDx=0;exitDy=0;entryX=0.5;entryY=0;entryDx=0;entryDy=0;" edge="1" parent="1" source="OV2TNJfmkwUL_sUpIshk-109" target="OV2TNJfmkwUL_sUpIshk-110">
          <mxGeometry relative="1" as="geometry" />
        </mxCell>
        <mxCell id="OV2TNJfmkwUL_sUpIshk-109" value="Element&lt;div&gt;&amp;lt;td&amp;gt;&lt;/div&gt;" style="rounded=0;whiteSpace=wrap;html=1;" vertex="1" parent="1">
          <mxGeometry x="1520" y="938" width="120" height="60" as="geometry" />
        </mxCell>
        <mxCell id="OV2TNJfmkwUL_sUpIshk-110" value="Text&lt;div&gt;El Ãºltimo deseo - Andrzej Sapkowski&lt;/div&gt;" style="rounded=0;whiteSpace=wrap;html=1;fillColor=light-dark(#B3B3B3,var(--ge-dark-color, #121212));" vertex="1" parent="1">
          <mxGeometry x="1520" y="1040" width="120" height="60" as="geometry" />
        </mxCell>
        <mxCell id="OV2TNJfmkwUL_sUpIshk-111" style="edgeStyle=orthogonalEdgeStyle;rounded=0;orthogonalLoop=1;jettySize=auto;html=1;exitX=0.25;exitY=1;exitDx=0;exitDy=0;" edge="1" parent="1" source="OV2TNJfmkwUL_sUpIshk-113" target="OV2TNJfmkwUL_sUpIshk-115">
          <mxGeometry relative="1" as="geometry" />
        </mxCell>
        <mxCell id="OV2TNJfmkwUL_sUpIshk-112" style="edgeStyle=orthogonalEdgeStyle;rounded=0;orthogonalLoop=1;jettySize=auto;html=1;exitX=0.75;exitY=1;exitDx=0;exitDy=0;entryX=0.5;entryY=0;entryDx=0;entryDy=0;" edge="1" parent="1" source="OV2TNJfmkwUL_sUpIshk-113" target="OV2TNJfmkwUL_sUpIshk-118">
          <mxGeometry relative="1" as="geometry" />
        </mxCell>
        <mxCell id="OV2TNJfmkwUL_sUpIshk-113" value="Element&lt;div&gt;&amp;lt;tr&amp;gt;&lt;/div&gt;" style="rounded=0;whiteSpace=wrap;html=1;" vertex="1" parent="1">
          <mxGeometry x="1724" y="828" width="120" height="60" as="geometry" />
        </mxCell>
        <mxCell id="OV2TNJfmkwUL_sUpIshk-114" style="edgeStyle=orthogonalEdgeStyle;rounded=0;orthogonalLoop=1;jettySize=auto;html=1;exitX=0.5;exitY=1;exitDx=0;exitDy=0;entryX=0.5;entryY=0;entryDx=0;entryDy=0;" edge="1" parent="1" source="OV2TNJfmkwUL_sUpIshk-115" target="OV2TNJfmkwUL_sUpIshk-116">
          <mxGeometry relative="1" as="geometry" />
        </mxCell>
        <mxCell id="OV2TNJfmkwUL_sUpIshk-115" value="Element&lt;div&gt;&amp;lt;td&amp;gt;&lt;/div&gt;" style="rounded=0;whiteSpace=wrap;html=1;" vertex="1" parent="1">
          <mxGeometry x="1654" y="938" width="120" height="60" as="geometry" />
        </mxCell>
        <mxCell id="OV2TNJfmkwUL_sUpIshk-116" value="Text&lt;div&gt;Estilo de mÃºsica preferida es:&lt;/div&gt;" style="rounded=0;whiteSpace=wrap;html=1;fillColor=light-dark(#B3B3B3,var(--ge-dark-color, #121212));" vertex="1" parent="1">
          <mxGeometry x="1654" y="1040" width="120" height="60" as="geometry" />
        </mxCell>
        <mxCell id="OV2TNJfmkwUL_sUpIshk-117" style="edgeStyle=orthogonalEdgeStyle;rounded=0;orthogonalLoop=1;jettySize=auto;html=1;exitX=0.5;exitY=1;exitDx=0;exitDy=0;entryX=0.5;entryY=0;entryDx=0;entryDy=0;" edge="1" parent="1" source="OV2TNJfmkwUL_sUpIshk-118" target="OV2TNJfmkwUL_sUpIshk-119">
          <mxGeometry relative="1" as="geometry" />
        </mxCell>
        <mxCell id="OV2TNJfmkwUL_sUpIshk-118" value="Element&lt;div&gt;&amp;lt;td&amp;gt;&lt;/div&gt;" style="rounded=0;whiteSpace=wrap;html=1;" vertex="1" parent="1">
          <mxGeometry x="1784" y="938" width="120" height="60" as="geometry" />
        </mxCell>
        <mxCell id="OV2TNJfmkwUL_sUpIshk-119" value="Text&lt;div&gt;Rock&lt;/div&gt;" style="rounded=0;whiteSpace=wrap;html=1;fillColor=light-dark(#B3B3B3,var(--ge-dark-color, #121212));" vertex="1" parent="1">
          <mxGeometry x="1784" y="1040" width="120" height="60" as="geometry" />
        </mxCell>
        <mxCell id="OV2TNJfmkwUL_sUpIshk-120" style="edgeStyle=orthogonalEdgeStyle;rounded=0;orthogonalLoop=1;jettySize=auto;html=1;exitX=0.25;exitY=1;exitDx=0;exitDy=0;" edge="1" parent="1" source="OV2TNJfmkwUL_sUpIshk-122" target="OV2TNJfmkwUL_sUpIshk-124">
          <mxGeometry relative="1" as="geometry" />
        </mxCell>
        <mxCell id="OV2TNJfmkwUL_sUpIshk-121" style="edgeStyle=orthogonalEdgeStyle;rounded=0;orthogonalLoop=1;jettySize=auto;html=1;exitX=0.75;exitY=1;exitDx=0;exitDy=0;entryX=0.5;entryY=0;entryDx=0;entryDy=0;" edge="1" parent="1" source="OV2TNJfmkwUL_sUpIshk-122" target="OV2TNJfmkwUL_sUpIshk-127">
          <mxGeometry relative="1" as="geometry" />
        </mxCell>
        <mxCell id="OV2TNJfmkwUL_sUpIshk-122" value="Element&lt;div&gt;&amp;lt;tr&amp;gt;&lt;/div&gt;" style="rounded=0;whiteSpace=wrap;html=1;" vertex="1" parent="1">
          <mxGeometry x="1990" y="828" width="120" height="60" as="geometry" />
        </mxCell>
        <mxCell id="OV2TNJfmkwUL_sUpIshk-123" style="edgeStyle=orthogonalEdgeStyle;rounded=0;orthogonalLoop=1;jettySize=auto;html=1;exitX=0.5;exitY=1;exitDx=0;exitDy=0;entryX=0.5;entryY=0;entryDx=0;entryDy=0;" edge="1" parent="1" source="OV2TNJfmkwUL_sUpIshk-124" target="OV2TNJfmkwUL_sUpIshk-125">
          <mxGeometry relative="1" as="geometry" />
        </mxCell>
        <mxCell id="OV2TNJfmkwUL_sUpIshk-124" value="Element&lt;div&gt;&amp;lt;td&amp;gt;&lt;/div&gt;" style="rounded=0;whiteSpace=wrap;html=1;" vertex="1" parent="1">
          <mxGeometry x="1920" y="938" width="120" height="60" as="geometry" />
        </mxCell>
        <mxCell id="OV2TNJfmkwUL_sUpIshk-125" value="Text&lt;div&gt;Mis videojuegos favoritos son:&lt;/div&gt;" style="rounded=0;whiteSpace=wrap;html=1;fillColor=light-dark(#B3B3B3,var(--ge-dark-color, #121212));" vertex="1" parent="1">
          <mxGeometry x="1920" y="1040" width="120" height="60" as="geometry" />
        </mxCell>
        <mxCell id="OV2TNJfmkwUL_sUpIshk-126" style="edgeStyle=orthogonalEdgeStyle;rounded=0;orthogonalLoop=1;jettySize=auto;html=1;exitX=0.5;exitY=1;exitDx=0;exitDy=0;entryX=0.5;entryY=0;entryDx=0;entryDy=0;" edge="1" parent="1" source="OV2TNJfmkwUL_sUpIshk-127" target="OV2TNJfmkwUL_sUpIshk-128">
          <mxGeometry relative="1" as="geometry" />
        </mxCell>
        <mxCell id="OV2TNJfmkwUL_sUpIshk-127" value="Element&lt;div&gt;&amp;lt;td&amp;gt;&lt;/div&gt;" style="rounded=0;whiteSpace=wrap;html=1;" vertex="1" parent="1">
          <mxGeometry x="2050" y="938" width="120" height="60" as="geometry" />
        </mxCell>
        <mxCell id="OV2TNJfmkwUL_sUpIshk-128" value="Text&lt;div&gt;The Legend of Zelda...&lt;/div&gt;" style="rounded=0;whiteSpace=wrap;html=1;fillColor=light-dark(#B3B3B3,var(--ge-dark-color, #121212));" vertex="1" parent="1">
          <mxGeometry x="2050" y="1040" width="120" height="60" as="geometry" />
        </mxCell>
        <mxCell id="OV2TNJfmkwUL_sUpIshk-129" style="edgeStyle=orthogonalEdgeStyle;rounded=0;orthogonalLoop=1;jettySize=auto;html=1;exitX=0.25;exitY=1;exitDx=0;exitDy=0;" edge="1" parent="1" source="OV2TNJfmkwUL_sUpIshk-131" target="OV2TNJfmkwUL_sUpIshk-133">
          <mxGeometry relative="1" as="geometry" />
        </mxCell>
        <mxCell id="OV2TNJfmkwUL_sUpIshk-130" style="edgeStyle=orthogonalEdgeStyle;rounded=0;orthogonalLoop=1;jettySize=auto;html=1;exitX=0.75;exitY=1;exitDx=0;exitDy=0;entryX=0.5;entryY=0;entryDx=0;entryDy=0;" edge="1" parent="1" source="OV2TNJfmkwUL_sUpIshk-131" target="OV2TNJfmkwUL_sUpIshk-136">
          <mxGeometry relative="1" as="geometry" />
        </mxCell>
        <mxCell id="OV2TNJfmkwUL_sUpIshk-144" style="edgeStyle=orthogonalEdgeStyle;rounded=0;orthogonalLoop=1;jettySize=auto;html=1;exitX=1;exitY=0.5;exitDx=0;exitDy=0;entryX=0.5;entryY=0;entryDx=0;entryDy=0;" edge="1" parent="1" source="OV2TNJfmkwUL_sUpIshk-131" target="OV2TNJfmkwUL_sUpIshk-143">
          <mxGeometry relative="1" as="geometry">
            <Array as="points">
              <mxPoint x="2520" y="858" />
            </Array>
          </mxGeometry>
        </mxCell>
        <mxCell id="OV2TNJfmkwUL_sUpIshk-131" value="Element&lt;div&gt;&amp;lt;tr&amp;gt;&lt;/div&gt;" style="rounded=0;whiteSpace=wrap;html=1;" vertex="1" parent="1">
          <mxGeometry x="2250" y="828" width="120" height="60" as="geometry" />
        </mxCell>
        <mxCell id="OV2TNJfmkwUL_sUpIshk-132" style="edgeStyle=orthogonalEdgeStyle;rounded=0;orthogonalLoop=1;jettySize=auto;html=1;exitX=0.5;exitY=1;exitDx=0;exitDy=0;entryX=0.5;entryY=0;entryDx=0;entryDy=0;" edge="1" parent="1" source="OV2TNJfmkwUL_sUpIshk-133" target="OV2TNJfmkwUL_sUpIshk-134">
          <mxGeometry relative="1" as="geometry" />
        </mxCell>
        <mxCell id="OV2TNJfmkwUL_sUpIshk-133" value="Element&lt;div&gt;&amp;lt;td&amp;gt;&lt;/div&gt;" style="rounded=0;whiteSpace=wrap;html=1;" vertex="1" parent="1">
          <mxGeometry x="2180" y="938" width="120" height="60" as="geometry" />
        </mxCell>
        <mxCell id="OV2TNJfmkwUL_sUpIshk-134" value="Text&lt;div&gt;Lenguajes aprendidos&lt;/div&gt;" style="rounded=0;whiteSpace=wrap;html=1;fillColor=light-dark(#B3B3B3,var(--ge-dark-color, #121212));" vertex="1" parent="1">
          <mxGeometry x="2180" y="1040" width="120" height="60" as="geometry" />
        </mxCell>
        <mxCell id="OV2TNJfmkwUL_sUpIshk-135" style="edgeStyle=orthogonalEdgeStyle;rounded=0;orthogonalLoop=1;jettySize=auto;html=1;exitX=0.5;exitY=1;exitDx=0;exitDy=0;entryX=0.5;entryY=0;entryDx=0;entryDy=0;" edge="1" parent="1" source="OV2TNJfmkwUL_sUpIshk-136" target="OV2TNJfmkwUL_sUpIshk-137">
          <mxGeometry relative="1" as="geometry" />
        </mxCell>
        <mxCell id="OV2TNJfmkwUL_sUpIshk-136" value="Element&lt;div&gt;&amp;lt;td&amp;gt;&lt;/div&gt;" style="rounded=0;whiteSpace=wrap;html=1;" vertex="1" parent="1">
          <mxGeometry x="2310" y="938" width="120" height="60" as="geometry" />
        </mxCell>
        <mxCell id="OV2TNJfmkwUL_sUpIshk-137" value="Text&lt;div&gt;C++, C#, Java, Python, HTML, CSS...&lt;/div&gt;" style="rounded=0;whiteSpace=wrap;html=1;fillColor=light-dark(#B3B3B3,var(--ge-dark-color, #121212));" vertex="1" parent="1">
          <mxGeometry x="2310" y="1040" width="120" height="60" as="geometry" />
        </mxCell>
        <mxCell id="OV2TNJfmkwUL_sUpIshk-143" value="Attr&lt;br&gt;&lt;div&gt;id=&quot;Lenguajes&quot;&lt;/div&gt;" style="rounded=0;whiteSpace=wrap;html=1;fillColor=light-dark(#B3B3B3,var(--ge-dark-color, #121212));" vertex="1" parent="1">
          <mxGeometry x="2460" y="938" width="120" height="60" as="geometry" />
        </mxCell>
        <mxCell id="OV2TNJfmkwUL_sUpIshk-146" value="Text&lt;br&gt;&lt;div&gt;Si necesitan comunicarse conmigo...&lt;/div&gt;" style="rounded=0;whiteSpace=wrap;html=1;fillColor=light-dark(#B3B3B3,var(--ge-dark-color, #121212));" vertex="1" parent="1">
          <mxGeometry x="1710" y="680" width="120" height="60" as="geometry" />
        </mxCell>
        <mxCell id="OV2TNJfmkwUL_sUpIshk-151" style="edgeStyle=orthogonalEdgeStyle;rounded=0;orthogonalLoop=1;jettySize=auto;html=1;exitX=0;exitY=0.5;exitDx=0;exitDy=0;entryX=0.5;entryY=0;entryDx=0;entryDy=0;" edge="1" parent="1" source="OV2TNJfmkwUL_sUpIshk-148" target="OV2TNJfmkwUL_sUpIshk-150">
          <mxGeometry relative="1" as="geometry" />
        </mxCell>
        <mxCell id="OV2TNJfmkwUL_sUpIshk-153" style="edgeStyle=orthogonalEdgeStyle;rounded=0;orthogonalLoop=1;jettySize=auto;html=1;exitX=1;exitY=0.5;exitDx=0;exitDy=0;entryX=0.5;entryY=0;entryDx=0;entryDy=0;" edge="1" parent="1" source="OV2TNJfmkwUL_sUpIshk-148" target="OV2TNJfmkwUL_sUpIshk-152">
          <mxGeometry relative="1" as="geometry" />
        </mxCell>
        <mxCell id="OV2TNJfmkwUL_sUpIshk-148" value="Element&lt;div&gt;&amp;lt;a&amp;gt;&lt;/div&gt;" style="rounded=0;whiteSpace=wrap;html=1;" vertex="1" parent="1">
          <mxGeometry x="2060" y="650" width="120" height="60" as="geometry" />
        </mxCell>
        <mxCell id="OV2TNJfmkwUL_sUpIshk-150" value="Attr&lt;div&gt;href=&quot;mailto:jhonatan&lt;/div&gt;&lt;div&gt;homsanyucv&lt;/div&gt;&lt;div&gt;@gmail.com&quot;&lt;/div&gt;" style="rounded=0;whiteSpace=wrap;html=1;fillColor=light-dark(#B3B3B3,var(--ge-dark-color, #121212));align=center;" vertex="1" parent="1">
          <mxGeometry x="1920" y="700" width="120" height="60" as="geometry" />
        </mxCell>
        <mxCell id="OV2TNJfmkwUL_sUpIshk-152" value="Text&lt;br&gt;&lt;div&gt;jhonatanhomsanyucv&lt;/div&gt;&lt;div&gt;@gmail.com&lt;/div&gt;" style="rounded=0;whiteSpace=wrap;html=1;fillColor=light-dark(#B3B3B3,var(--ge-dark-color, #121212));" vertex="1" parent="1">
          <mxGeometry x="2230" y="700" width="120" height="60" as="geometry" />
        </mxCell>
      </root>
    </mxGraphModel>
  </diagram>
</mxfile>
